<?xml version="1.0" encoding="utf-8" ?>
<svg xmlns="http://www.w3.org/2000/svg" xmlns:xlink="http://www.w3.org/1999/xlink" width="512" height="512">
	<path d="M38.1945 272.355C40.5042 271.999 43.2231 272.218 45.5746 272.218L60.102 272.235L110.12 272.259L185.43 272.258L207.009 272.261C211.301 272.268 215.92 271.983 220.153 272.676C224.251 273.346 227.298 274.641 230.625 277.171L232.125 278.362C236.468 282.221 239.185 288.234 239.487 294.009C239.692 297.921 239.487 301.933 239.48 305.854L239.471 328.342L239.506 399.893L239.518 450.687L239.482 465.713C239.464 469.242 239.546 472.784 239.089 476.292C238.572 480.256 236.124 485.258 233.436 488.206C229.216 492.834 223.735 495.284 217.518 495.601L178.436 495.674L104.925 495.68L61.6519 495.704C54.4541 495.747 47.0925 496.386 39.9147 495.884C35.7655 495.594 31.7726 494.842 28.1279 492.74C23.1871 489.89 18.7643 484.617 17.27 479.046C16.9916 478.008 16.6747 476.99 16.5534 475.917C16.1054 471.955 16.2962 467.759 16.285 463.769L16.2544 443.896L16.2445 378.902L16.2458 320.417L16.2014 308.72C16.0583 304.096 15.7191 299.415 16.2134 294.802C16.7952 289.371 18.5061 284.53 22.0031 280.25C26.1075 275.227 31.8936 273.034 38.1945 272.355ZM31.7602 297.063L31.696 297.875L31.5414 424.148L31.547 454.297L31.5674 465.946C31.59 468.757 31.4422 471.644 32.2188 474.37L33.012 475.875C34.5232 478.265 36.0067 479.251 38.7421 479.841L40.5379 480.157C43.7064 480.507 47.002 480.331 50.1853 480.303L64.1028 480.251L112.1 480.227L181.218 480.244L203.831 480.264C207.77 480.267 211.821 480.463 215.75 480.223C217.947 480.089 219.596 479.197 221.265 477.821C223.849 475.69 223.929 473.187 224.252 470.055L224.224 296.902C223.81 294.951 223.731 292.856 222.498 291.185C221.231 289.469 219.58 288.589 217.487 288.274C213.448 287.667 209.437 287.695 205.364 287.686L191.258 287.675L146.216 287.677L77.067 287.676L54.4215 287.683C50.2823 287.687 46.067 287.53 41.9358 287.769C39.7311 287.897 36.9237 288.131 35.1448 289.505C33.225 290.988 32.3648 292.505 32.0549 294.882L31.7602 297.063ZM224.224 296.902L224.252 470.055C224.413 469.923 225.012 469.527 225.082 469.375C225.143 469.24 225.087 468.524 225.088 468.365C225.096 467.102 224.714 463.153 225.502 462.375L225.495 338.861L225.502 313.409L225.502 308.021C225.502 307.409 225.625 306.372 225.439 305.812C224.514 303.041 225.5 299.706 224.971 296.812C224.453 296.728 224.702 296.697 224.224 296.902ZM30.5058 308.849L30.5788 472.124L30.8872 472.375C30.9445 473.108 31.006 473.63 31.2553 474.317L31.552 475.477L32.2188 474.37C31.4422 471.644 31.59 468.757 31.5674 465.946L31.547 454.297L31.5414 424.148L31.696 297.875C30.3215 299.84 31.3713 306.032 30.5058 308.849ZM30.5058 308.849C31.3713 306.032 30.3215 299.84 31.696 297.875L31.7602 297.063L31.302 294.777L31.1072 294.875L30.8287 298.188L30.5556 298.125C30.4762 301.605 30.1437 305.402 30.5058 308.849Z"/>
	<path d="M30.5058 308.849C30.1437 305.402 30.4762 301.605 30.5556 298.125L30.8287 298.188L31.1072 294.875L31.302 294.777L31.7602 297.063L31.696 297.875C30.3215 299.84 31.3713 306.032 30.5058 308.849Z"/>
	<path d="M30.5058 308.849C31.3713 306.032 30.3215 299.84 31.696 297.875L31.5414 424.148L31.547 454.297L31.5674 465.946C31.59 468.757 31.4422 471.644 32.2188 474.37L31.552 475.477L31.2553 474.317C31.006 473.63 30.9445 473.108 30.8872 472.375L30.5788 472.124L30.5058 308.849Z"/>
	<path d="M224.224 296.902C224.702 296.697 224.453 296.728 224.971 296.812C225.5 299.706 224.514 303.041 225.439 305.812C225.625 306.372 225.502 307.409 225.502 308.021L225.502 313.409L225.495 338.861L225.502 462.375C224.714 463.153 225.096 467.102 225.088 468.365C225.087 468.524 225.143 469.24 225.082 469.375C225.012 469.527 224.413 469.923 224.252 470.055L224.224 296.902Z"/>
	<path d="M54.6924 328.306C61.6857 327.9 68.9079 328.244 75.9193 328.245L117.974 328.247L172.083 328.225L200.25 328.259C201.551 328.303 202.798 328.669 203.934 329.301C205.541 330.194 206.72 331.971 207.161 333.731C208.315 338.345 207.532 343.746 207.504 348.49L207.476 369.952L207.42 411.039L207.585 428.913C207.496 431.207 207.557 434.317 206.267 436.285C204.844 438.457 202.874 439.154 200.466 439.699C193.624 440.072 186.899 439.654 180.065 439.624L143.245 439.629L86.5127 439.667L57.6342 439.664C56.0499 439.623 53.6713 439.671 52.2669 438.899L52 438.743C50.3919 437.827 49.2803 436.439 48.6908 434.667C48.2244 433.266 48.1185 431.425 48.0811 429.943L48.2879 417.256L48.2606 380.287L48.2256 356.887L48.0465 338.942C48.1267 336.805 48.1593 333.865 49.2149 331.974C50.4229 329.809 52.3942 328.889 54.6924 328.306ZM81.1225 343.875L77.1841 343.928L109.82 373.358L121.671 383.929C123.734 385.706 125.776 387.65 128.064 389.133L153.17 366.872L167.602 354.203C171.48 350.756 175.183 346.908 179.535 344.043L81.1225 343.875ZM85.8459 424.065L176.648 424.272C177.524 424.118 178.361 424.083 179.249 424.065L145.765 394.376C143.776 397.067 140.488 399.599 137.738 401.479C136.574 402.276 135.482 403.134 134.178 403.701C130.422 405.334 125.916 405.243 122.144 403.679L121.75 403.513C117.578 401.836 113.828 397.622 110.366 394.757C109.632 395.094 109.021 395.85 108.399 396.375L101.84 402.014L82.9141 418.544C80.794 420.372 78.837 422.349 76.6503 424.096L85.8459 424.065ZM191.61 354.375L157.616 384.031L174.578 399.02L185.176 408.305C187.556 410.39 190.165 412.467 192.252 414.844L191.98 354.625L191.61 354.375ZM63.8725 353.875C63.2483 359.997 63.64 366.352 63.6629 372.506L63.6936 404.223L63.8998 414.717L82.0033 398.421L98.1839 384.31L64.353 353.845L63.8725 353.875ZM85.8459 424.065C86.8473 424.372 87.6892 424.404 88.7328 424.402C87.9401 424.501 87.1353 424.545 86.3882 424.836C92.5312 425.597 99.2327 425.092 105.438 425.077L141.538 424.95L162.934 424.885L169.664 424.874C171.25 424.872 172.719 424.983 174.25 424.594L175.127 424.535C175.685 424.505 176.127 424.49 176.648 424.272L85.8459 424.065Z"/>
	<path d="M85.8459 424.065L176.648 424.272C176.127 424.49 175.685 424.505 175.127 424.535L174.25 424.594C172.719 424.983 171.25 424.872 169.664 424.874L162.934 424.885L141.538 424.95L105.438 425.077C99.2327 425.092 92.5312 425.597 86.3882 424.836C87.1353 424.545 87.9401 424.501 88.7328 424.402C87.6892 424.404 86.8473 424.372 85.8459 424.065Z"/>
	<path d="M44.524 16.1158L79.2903 16.0812L150.207 16.2295L193.394 16.2524C201.567 16.2565 209.883 15.9468 218.038 16.4654C220.319 16.6104 222.694 17.0121 224.82 17.876C230.014 19.9863 234.778 24.1415 236.952 29.3855C237.298 30.2188 237.757 30.9848 237.99 31.8605L238.266 32.828C239.114 35.33 239.325 37.8543 239.404 40.4808L239.543 79.701L239.537 156.9L239.619 208.436L239.589 224.926C239.572 229.335 239.992 234.665 238.656 238.888L238.536 239.25C237.404 242.852 235.528 246.246 232.848 248.933C229.575 252.216 224.587 254.819 219.99 255.449C217.418 255.802 214.66 255.65 212.062 255.671L89.6279 255.692L59.0747 255.71C51.4218 255.794 43.6438 256.541 36.0288 255.379C30.2737 254.501 24.5233 251.315 21.0802 246.532C19.4386 244.251 17.9996 241.829 17.252 239.094C16.7239 237.162 16.4275 235.429 16.3501 233.415L16.2427 216.75L16.2271 188.848L16.211 104.431L16.1986 59.9916C16.1877 51.9616 15.4384 43.6906 16.6257 35.7334C17.3068 31.1687 20.0108 26.3509 23.1502 23.0191C28.8484 16.9719 36.7386 16.3832 44.524 16.1158ZM224.288 225.651L224.276 41.037C224.03 38.9985 223.906 36.7624 222.643 35.0531C221.399 33.3697 219.637 32.571 217.625 32.2458C213.771 31.6227 210.019 31.6581 206.128 31.6528L193.406 31.6506L152.374 31.6746L79.1458 31.6868L54.9856 31.6827L42.125 31.7262C40.0055 31.8192 37.1838 32.0641 35.4081 33.286C33.7131 34.4524 32.3637 36.1194 32.0789 38.217C31.5406 42.1821 31.717 46.3345 31.7151 50.3268L31.6723 67.3928L31.6221 133.093L31.669 198.83L31.5611 219.764C31.5355 223.415 31.2841 227.251 31.5751 230.887C31.7608 233.207 32.5664 235.431 34.0121 237.256C35.7584 239.459 37.8318 239.884 40.5 240.157C43.3931 240.453 46.3949 240.307 49.304 240.293L63.5427 240.246L112.506 240.271L181.279 240.288L203.071 240.279C206.979 240.277 210.98 240.455 214.875 240.22C217.396 240.069 219.268 239.568 221.262 237.93C222.743 236.714 223.518 235.393 223.797 233.5L223.852 233.168L224.288 225.651ZM224.276 41.037L224.288 225.651C224.839 224.387 224.673 222.185 224.779 220.779C224.876 220.644 225.001 220.526 225.069 220.375C225.167 220.156 225.069 219.194 225.069 218.928L225.068 214.542L225.067 189.479L225.106 39.625L224.594 39.2512L224.276 41.037Z"/>
	<path d="M224.276 41.037L224.594 39.2512L225.106 39.625L225.067 189.479L225.068 214.542L225.069 218.928C225.069 219.194 225.167 220.156 225.069 220.375C225.001 220.526 224.876 220.644 224.779 220.779C224.673 222.185 224.839 224.387 224.288 225.651L224.276 41.037Z"/>
	<path d="M82.2805 42.0483C84.6138 41.7978 87.1025 43.1883 88.869 44.6329C92.0715 47.2518 94.916 50.5065 97.8254 53.4523L112.025 67.6621L121.748 77.338C123.851 79.3821 126.19 81.205 128.049 83.4877C129.266 84.9809 130.15 86.4331 130.294 88.3975C130.424 90.1893 130.072 91.8648 129.158 93.4082C127.78 95.7346 125.419 97.5937 123.498 99.4767C119.207 103.684 114.449 107.992 110.56 112.57C105.933 118.017 103.729 124.316 104.326 131.492C104.915 138.57 109.412 145.012 114.75 149.464C119.194 153.169 124.582 155.274 130.376 154.985C134.145 154.797 137.646 154.238 141.028 152.455C145.023 150.348 148.1 146.822 151.267 143.681L158.389 136.687C160.601 134.394 162.676 131.863 165.395 130.142C166.635 129.358 168.277 128.758 169.75 128.655C172.137 128.488 174.706 130.403 176.416 131.849C179.153 134.162 181.638 137.03 184.174 139.575L198.991 154.388L208.513 163.86C210.771 166.059 213.265 168.204 215.221 170.676C216.42 172.191 217.326 173.772 217.393 175.75C217.454 177.539 216.73 179.285 215.763 180.75C214.466 182.717 212.476 184.378 210.814 186.046L202.292 194.593C198.845 198.011 195.318 201.542 191.467 204.509C183.133 210.932 172.728 215.659 162.5 217.997C144.349 222.144 124.604 218.441 108.86 208.636C102.052 204.395 96.5266 198.69 90.9247 193.025L77.4849 179.532L65.8721 167.987C61.3955 163.589 56.9076 159.275 53.2753 154.125C47.6557 146.157 43.548 137.202 41.3753 127.688C37.2029 109.418 40.8304 89.0282 50.9501 73.242C56.5595 64.4916 63.7986 57.8365 71.1043 50.5891C73.615 48.0984 76.0417 45.1588 78.9972 43.2084C80.011 42.5393 81.115 42.3082 82.2805 42.0483ZM55.2532 110.361L55.3916 115.554L56.4587 123.146C57.9494 130.479 60.9506 137.591 65.2055 143.757C68.9514 149.186 73.7323 153.83 78.433 158.414L90.2668 170.108L101.225 181.216C106.036 186.172 110.756 190.966 116.559 194.789C123.276 199.215 131.862 202.574 139.878 203.567C146.615 204.401 154.27 203.735 160.895 202.332C167.078 201.022 173.006 197.961 178.207 194.461C178.949 193.962 180.285 193.277 180.75 192.561L152.613 164.23L145.078 167.733C134.827 171.529 123.599 171.621 113.609 166.925C102.884 161.884 94.2654 152.259 90.5002 141.021C87.5091 132.094 88.1214 122.008 91.7396 113.355C92.701 111.056 94.0173 108.975 95.1368 106.757L66.6914 78.3952L66.4223 78.6164C65.2874 79.798 64.1969 81.8691 63.3357 83.3246C58.2395 91.9381 56.1145 100.478 55.2532 110.361ZM82.7719 61.375C81.0553 63.1316 79.2628 65.0142 77.3264 66.5232C77.3729 66.6867 77.3887 66.8622 77.4659 67.0135C77.6222 67.3196 78.38 67.8572 78.6449 68.125L84.0621 73.5378L100.243 89.63L104.046 93.4551C104.424 93.8192 105.032 94.533 105.493 94.7625L105.916 94.875L111.761 89.5126L83.5023 61.2381L82.7719 61.375ZM169.622 148.125L164.052 153.607L164.272 153.767C166.249 155.251 167.961 157.247 169.718 158.989L179.292 168.51L187.766 176.965C189.378 178.568 191.208 180.134 192.599 181.926L198.132 176.387C195.429 172.65 191.569 169.418 188.302 166.165L170.167 148.092L169.622 148.125ZM55.3916 115.554L55.2532 110.361L55.1414 109.9C54.8165 108.454 55.4956 106.273 54.5432 105.125C54.2941 109.747 53.9456 114.732 54.5213 119.327L54.8192 119.229C55.1811 118.192 54.855 116.259 55.3916 115.554Z"/>
	<path d="M55.3916 115.554C54.855 116.259 55.1811 118.192 54.8192 119.229L54.5213 119.327C53.9456 114.732 54.2941 109.747 54.5432 105.125C55.4956 106.273 54.8165 108.454 55.1414 109.9L55.2532 110.361L55.3916 115.554Z"/>
	<path d="M272.671 36.5549L272.944 34.2736C273.598 31.0177 275.368 27.772 277.318 25.125L277.566 24.783C281.103 19.9802 286.558 17.3631 292.375 16.515C295.627 16.0409 299.123 16.2598 302.407 16.2612L318.872 16.2662L376.171 16.2582L443.551 16.2574L463.813 16.2655C467.686 16.2684 471.734 16.0481 475.58 16.4848C479.784 16.962 483.654 18.8727 486.983 21.4259C491.263 24.7078 493.494 28.8476 494.88 33.978C496.18 38.7887 495.586 44.6639 495.579 49.6439L495.55 69.7962L495.552 149.625L495.548 207.579L495.477 224.444C495.462 227.886 495.567 231.388 495.292 234.821C494.993 238.555 493.788 241.569 491.876 244.762C490.055 247.801 487.198 250.473 484.125 252.215C480.473 254.285 477.188 255.47 472.969 255.876C469.825 256.178 466.643 255.804 463.5 255.725L449.644 255.665L398.702 255.655L391.373 255.805C389.084 255.924 386.096 256.347 383.875 255.777C383.405 256.527 383.668 258.02 383.626 258.928C383.281 266.255 383.406 273.82 383.799 281.147L383.934 281.369C390.272 279.627 397.758 279.823 403.586 283.126C407.913 285.578 411.375 289.222 413.583 293.672C414.208 294.932 414.603 296.416 415.356 297.593C420.758 295.937 427.043 295.747 432.342 297.9C435.087 299.015 437.377 300.389 439.688 302.251C443.221 305.099 445.375 309.678 447.254 313.688C453.958 311.778 461.318 311.834 467.551 315.269C473.297 318.435 477.034 323.195 478.791 329.485C479.791 333.067 479.703 336.989 479.705 340.682L479.556 355.969L479.617 410.529L479.564 431.042C479.557 434.182 479.807 437.544 479.519 440.662C479.394 442.008 478.961 443.313 478.296 444.485L478.125 444.782C476.487 447.73 474.335 450.447 472.374 453.189L467.593 460.422C466.307 462.353 464.372 464.79 463.803 467.019C463.462 468.354 463.571 470.042 463.548 471.431L463.505 481.47C463.508 484.701 464.105 489.206 462.316 492.053L462.116 492.382C461.085 494.046 459.714 494.968 457.826 495.436C456.298 495.814 454.585 495.681 453.019 495.685L444.976 495.693L416.619 495.689L363.772 495.692L352.931 495.756C350.439 495.826 347.983 496.06 345.485 495.985C343.937 495.939 341.327 495.656 340.05 494.812C338.61 493.86 337.676 492.95 336.958 491.375L336.834 491.114C336.059 489.387 336.232 486.827 336.172 484.964L335.965 472.784C335.952 471.372 336.16 469.173 335.71 467.843C335.557 467.39 334.901 466.722 334.587 466.303C333.02 464.204 331.201 462.293 329.464 460.336L319.091 448.021C317.102 445.628 314.707 443.339 313.258 440.555C311.227 436.651 309.969 431.991 308.548 427.815L299.999 402.917L287.979 367.988C284.828 359.069 281.366 350.16 278.83 341.054C278.053 338.265 278.417 335.002 279.375 332.304L279.532 331.853C280.855 328.094 283.767 325.129 287.338 323.451C289.859 322.266 292.491 321.631 295.203 321.054C301.167 319.784 307.023 319.203 312.897 321.381C318.447 323.438 322.727 327.832 325.145 333.159L330.803 345.855C332.356 349.313 333.815 352.712 336.001 355.83C336.446 352.169 336.287 348.419 336.29 344.736L336.288 327.181L336.286 280.284L336.304 255.987L313.051 255.719C305.819 255.677 297.821 256.624 290.728 255.088C284.392 253.716 279.533 250.115 275.964 244.729C274.224 242.103 272.9 238.843 272.68 235.677L272.578 235.607L272.467 231.37C272.201 229.513 272.326 227.484 272.32 225.606L272.299 216.104L272.27 182.267L272.259 63.5235L272.238 47.0063C272.232 43.9739 271.737 39.4243 272.671 36.5549ZM291.749 32.9137C289.989 34.341 288.3 35.8656 288.012 38.2578L287.925 39.25C287.596 42.9101 287.69 46.5726 287.681 50.2454L287.641 66.7723L287.601 120.359L287.489 196.125L287.523 230.75C287.576 232.208 287.908 233.533 288.366 234.91C289.037 236.088 289.863 237.151 290.806 238.125C291.388 238.726 292.101 239.365 292.93 239.59C294.21 239.937 295.77 239.938 297.098 240.047C301.129 240.378 305.039 240.255 309.082 240.252L336.3 240.288C335.907 236.504 336.175 232.016 336.705 228.25L336.905 226.877C337.923 221.141 342.14 215.326 346.853 212.087C352.16 208.441 359.32 207.707 365.522 208.938C370.831 209.99 375.699 213.22 378.747 217.678C382.814 223.098 383.529 228.872 383.583 235.43C383.595 236.859 383.343 238.904 383.728 240.253L445.417 240.27L460.499 240.286C464.948 240.316 469.793 241.031 474.125 239.789C476.263 239.176 478.201 237.428 479.213 235.485C480.239 233.514 480.168 230.792 480.224 228.599L480.264 189.866L480.26 114.893L480.261 73.6005L480.272 53.8081C480.274 48.6151 481.035 41.8314 479.307 36.8984C478.808 35.4754 477.452 33.5993 476.027 32.9891C473.77 32.0231 470.831 31.8783 468.401 31.7853L436.115 31.672L376.313 31.66L324.643 31.6674L297.875 31.7626C295.872 31.864 293.628 32.204 291.749 32.9137ZM400.836 362.587C400.495 361.767 400.397 360.883 400.338 360C400.147 357.105 400.281 354.126 400.281 351.223L400.29 335.601L400.303 320.323C400.307 316.932 400.205 313.505 400.469 310.122C400.455 305.736 400.586 301.272 397.287 297.968C395.686 296.365 393.19 296.049 391 296.054C388.866 296.058 386.979 297.25 385.604 298.82C384.65 299.91 383.953 301.637 383.719 303.055C383.355 305.27 383.466 307.61 383.48 309.852L383.541 319.438L383.529 349.609C383.528 353.595 384.062 358.544 383.125 362.408L383.043 362.763C382.588 364.523 380.965 366.034 379.421 366.858C377.512 367.877 375.161 367.966 373.138 367.277C371.47 366.709 369.81 365.241 369.061 363.625C368.854 363.178 368.576 362.487 368.581 361.99C368 358.098 368.306 353.81 368.305 349.868L368.301 329.346L368.343 254.43L368.382 240.5C368.392 237.134 368.888 232.839 367.83 229.625C367.15 227.56 365.648 225.6 363.623 224.713C362.046 224.022 358.666 223.545 357.067 224.302C354.675 225.434 352.831 227.616 352.037 230.125C351.442 232.006 351.493 234.307 351.476 236.259L351.454 244.5L351.491 264.731L351.441 351.085L351.43 378.637C351.433 382.963 351.732 387.414 351.472 391.722C351.384 393.176 351.146 394.917 350.295 396.125L350.094 396.422C348.969 398.047 347.313 399.065 345.375 399.435C343.473 399.799 341.402 399.58 339.782 398.433C338.314 397.395 337.379 395.818 336.511 394.287C333.534 389.033 331.332 383.114 328.775 377.625L316.742 352.339C314.705 347.908 313.011 343.317 310.575 339.086C309.94 337.983 309.17 337.233 308.246 336.384C306.802 336.012 305.153 335.494 303.66 335.503C300.385 335.523 297.186 336.985 294.001 337.562L294.127 337.808C294.961 339.489 295.444 341.319 296.026 343.097L298.991 351.766L314.204 395.925L321.568 417.672L324.48 426.125C325.193 428.291 325.863 430.679 326.964 432.681C328.753 435.937 331.81 438.794 334.262 441.563L342.144 450.889C344.555 453.692 347.161 456.352 349.277 459.389C350.418 461.025 351.011 462.52 351.235 464.5C351.797 469.479 351.808 475.284 351.463 480.284L448.426 480.287L448.355 471.017C448.327 467.908 447.845 464.1 448.838 461.114C449.773 458.304 452.277 455.414 453.941 452.965L459.997 443.821C461.362 441.801 463.504 439.28 463.996 436.875C464.427 434.773 464.29 432.408 464.301 430.269L464.287 419.561L464.265 384.786L464.263 352.354C464.262 347.084 464.677 341.438 464.169 336.207C463.929 333.739 463.121 331.67 461.311 329.942C459.612 328.319 456.639 327.806 454.375 327.968C452.414 328.109 450.65 329.292 449.399 330.754C446.605 334.016 447.424 340.592 447.424 344.61L447.462 355.183C447.493 357.871 447.921 362.023 446.329 364.316L446.139 364.594C444.863 366.405 443.197 367.255 441.029 367.576C439.001 367.876 437.256 367.572 435.56 366.336C434.098 365.27 432.682 363.414 432.439 361.584C431.964 358.002 432.275 354.019 432.277 350.402L432.281 329.176C432.279 325.484 432.658 321.242 431.65 317.669C431.23 316.181 429.941 314.227 428.625 313.335C426.95 312.201 423.708 311.758 421.75 312.198C420.054 312.58 418.051 313.902 417.157 315.393C416.429 316.608 415.903 318.018 415.696 319.419C415.132 323.227 415.447 327.472 415.447 331.327L415.448 352.809C415.446 355.964 415.72 359.411 415.054 362.5L414.988 362.841C414.643 364.432 413.096 365.864 411.76 366.655C409.925 367.744 407.564 367.975 405.522 367.401C403.726 366.896 402.064 365.424 401.252 363.75L400.836 362.587ZM288.366 234.91C287.908 233.533 287.576 232.208 287.523 230.75L287.489 196.125L287.601 120.359L287.641 66.7723L287.681 50.2454C287.69 46.5726 287.596 42.9101 287.925 39.25L288.012 38.2578C288.3 35.8656 289.989 34.341 291.749 32.9137L291.317 32.5238L291.572 32.4053C291.978 32.2095 291.829 32.2851 292.263 32L292.024 31.6354C291.546 31.838 291.252 32.0607 290.845 32.375L290.562 32.375C290.02 32.763 289.714 33.094 289.25 33.5581L288.984 33.7793C288.629 34.0774 288.807 33.8932 288.506 34.375C288.195 34.8721 287.97 35.2938 287.476 35.625C286.972 36.9099 286.955 37.8243 286.75 39.125L286.688 39.6262L286.578 39.8392C285.985 41.2381 286.38 172.373 286.378 186.502L286.377 217.43L286.414 233.375L286.75 233.623L286.877 234L287.377 234.75C287.377 235.23 287.268 235.266 287.625 235.623C287.897 235.238 287.915 235.088 288.366 234.91ZM368.343 254.43L368.301 329.346L368.305 349.868C368.306 353.81 368 358.098 368.581 361.99C369.02 361.328 368.93 360.904 368.966 360.125L369.235 360.289L369.241 362.5L369.573 362.5L369.503 333.196L369.492 267.866L369.5 243.785L369.501 239.46C369.501 239.029 369.621 238.105 369.501 237.75C369.4 237.449 369.167 237.209 369 236.939L368.75 237.125L368.618 254.116L368.343 254.43ZM272.467 231.37C272.711 230.291 272.634 229.106 272.7 228L272.962 218.834L273.022 195.111L273 180.987L272.99 152.966L272.981 68.0616L273.026 47.8481L273.044 42.1013C273.043 41.1574 273.164 40.032 272.869 39.128C272.594 38.2849 272.775 37.4294 272.671 36.5549C271.737 39.4243 272.232 43.9739 272.238 47.0063L272.259 63.5235L272.27 182.267L272.299 216.104L272.32 225.606C272.326 227.484 272.201 229.513 272.467 231.37ZM400.469 310.122C400.205 313.505 400.307 316.932 400.303 320.323L400.29 335.601L400.281 351.223C400.281 354.126 400.147 357.105 400.338 360C400.397 360.883 400.495 361.767 400.836 362.587L401.064 362.429L401.469 362.442L401.793 362C401.015 358.58 401.507 354.316 401.507 350.784L401.51 322.333L401.511 316.99C401.511 316.523 401.655 315.415 401.511 315C401.445 314.808 401.28 314.667 401.164 314.5C401.159 313.919 401.162 313.395 401.015 312.828C400.774 311.894 400.811 311.084 400.469 310.122ZM378.747 217.678C378.493 218.578 378.308 218.857 378.772 219.728L379.058 220.19C379.377 220.727 379.232 220.75 379.375 221.262C379.482 221.645 379.75 221.984 379.946 222.321C380.174 222.713 380.135 223.019 380.125 223.456L380.434 223.625C380.557 224.252 380.457 224.461 380.973 224.875C381.238 226.184 381.333 228.043 381.912 229.172C382.458 230.235 382.404 231.56 382.438 232.733L382.625 239.581L382.884 239.625L383.178 240.178L383.728 240.253C383.343 238.904 383.595 236.859 383.583 235.43C383.529 228.872 382.814 223.098 378.747 217.678ZM273.022 195.111L272.962 218.834L272.7 228C272.634 229.106 272.711 230.291 272.467 231.37L272.578 235.607L272.68 235.677C272.975 235.17 272.791 233.094 272.841 232.375L273.053 232.301C273.227 233.639 272.75 235.523 273.427 236.623C274.121 235.607 273.543 230.517 273.537 229.007L273.521 204.5C273.049 203.847 273.257 202.806 273.26 202.004C273.268 199.803 273.538 197.234 273.022 195.111Z"/>
	<path d="M273.022 195.111C273.538 197.234 273.268 199.803 273.26 202.004C273.257 202.806 273.049 203.847 273.521 204.5L273.537 229.007C273.543 230.517 274.121 235.607 273.427 236.623C272.75 235.523 273.227 233.639 273.053 232.301L272.841 232.375C272.791 233.094 272.975 235.17 272.68 235.677L272.578 235.607L272.467 231.37C272.711 230.291 272.634 229.106 272.7 228L272.962 218.834L273.022 195.111Z"/>
	<path d="M378.747 217.678C382.814 223.098 383.529 228.872 383.583 235.43C383.595 236.859 383.343 238.904 383.728 240.253L383.178 240.178L382.884 239.625L382.625 239.581L382.438 232.733C382.404 231.56 382.458 230.235 381.912 229.172C381.333 228.043 381.238 226.184 380.973 224.875C380.457 224.461 380.557 224.252 380.434 223.625L380.125 223.456C380.135 223.019 380.174 222.713 379.946 222.321C379.75 221.984 379.482 221.645 379.375 221.262C379.232 220.75 379.377 220.727 379.058 220.19L378.772 219.728C378.308 218.857 378.493 218.578 378.747 217.678Z"/>
	<path d="M400.469 310.122C400.811 311.084 400.774 311.894 401.015 312.828C401.162 313.395 401.159 313.919 401.164 314.5C401.28 314.667 401.445 314.808 401.511 315C401.655 315.415 401.511 316.523 401.511 316.99L401.51 322.333L401.507 350.784C401.507 354.316 401.015 358.58 401.793 362L401.469 362.442L401.064 362.429L400.836 362.587C400.495 361.767 400.397 360.883 400.338 360C400.147 357.105 400.281 354.126 400.281 351.223L400.29 335.601L400.303 320.323C400.307 316.932 400.205 313.505 400.469 310.122Z"/>
	<path d="M272.467 231.37C272.201 229.513 272.326 227.484 272.32 225.606L272.299 216.104L272.27 182.267L272.259 63.5235L272.238 47.0063C272.232 43.9739 271.737 39.4243 272.671 36.5549C272.775 37.4294 272.594 38.2849 272.869 39.128C273.164 40.032 273.043 41.1574 273.044 42.1013L273.026 47.8481L272.981 68.0616L272.99 152.966L273 180.987L273.022 195.111L272.962 218.834L272.7 228C272.634 229.106 272.711 230.291 272.467 231.37Z"/>
	<defs>
		<linearGradient id="gradient_0" gradientUnits="userSpaceOnUse" x1="369.28635" y1="320.99997" x2="368.71408" y2="321.00049">
			<stop offset="0" stop-color="black" stop-opacity="0.96078432"/>
			<stop offset="1" stop-color="#010000"/>
		</linearGradient>
	</defs>
	<path fill="url(#gradient_0)" d="M368.343 254.43L368.618 254.116L368.75 237.125L369 236.939C369.167 237.209 369.4 237.449 369.501 237.75C369.621 238.105 369.501 239.029 369.501 239.46L369.5 243.785L369.492 267.866L369.503 333.196L369.573 362.5L369.241 362.5L369.235 360.289L368.966 360.125C368.93 360.904 369.02 361.328 368.581 361.99C368 358.098 368.306 353.81 368.305 349.868L368.301 329.346L368.343 254.43Z"/>
	<path d="M288.366 234.91C287.915 235.088 287.897 235.238 287.625 235.623C287.268 235.266 287.377 235.23 287.377 234.75L286.877 234L286.75 233.623L286.414 233.375L286.377 217.43L286.378 186.502C286.38 172.373 285.985 41.2381 286.578 39.8392L286.688 39.6262L286.75 39.125C286.955 37.8243 286.972 36.9099 287.476 35.625C287.97 35.2938 288.195 34.8721 288.506 34.375C288.807 33.8932 288.629 34.0774 288.984 33.7793L289.25 33.5581C289.714 33.094 290.02 32.763 290.562 32.375L290.845 32.375C291.252 32.0607 291.546 31.838 292.024 31.6354L292.263 32C291.829 32.2851 291.978 32.2095 291.572 32.4053L291.317 32.5238L291.749 32.9137C289.989 34.341 288.3 35.8656 288.012 38.2578L287.925 39.25C287.596 42.9101 287.69 46.5726 287.681 50.2454L287.641 66.7723L287.601 120.359L287.489 196.125L287.523 230.75C287.576 232.208 287.908 233.533 288.366 234.91Z"/>
	<path d="M321.248 117.395C323.662 100.809 333.296 85.9295 346.633 75.99C353.01 71.237 359.593 68.548 367.25 66.5105C375.289 64.3715 383.852 63.5411 392.137 64.8028C395.588 65.3283 399.112 65.84 402.464 66.8352C416.116 70.8878 427.579 79.7475 435.914 91.1583C444.529 102.954 447.674 117.525 447.501 131.902C447.466 134.81 447.487 137.743 447.034 140.625C446.095 146.598 442.235 152.023 437.364 155.465C436.287 156.225 434.966 156.987 433.732 157.443C432.763 157.957 431.789 158.323 430.753 158.678L430.545 158.753C425.855 160.248 418.896 159.823 414.492 157.647L414.125 157.459C410.979 155.889 407.975 153.635 405.506 151.137C402.968 153.605 399.354 155.799 396.077 157.171C388.088 160.515 379.01 160.431 371.076 157.024C362.527 153.354 357.012 147.071 353.616 138.475C352.133 133.549 351.275 128.659 352.03 123.5C352.271 121.85 352.782 120.197 353.154 118.567C355.974 110.28 360.768 103.259 368.812 99.2802C376.396 95.529 386.169 94.6657 394.226 97.4129C400.347 99.5002 405.252 103.194 409.16 108.324C410.488 110.068 411.621 112.119 412.496 114.125C413.528 116.49 414.512 119.011 414.941 121.572C415.464 124.69 415.404 128.013 415.431 131.17C415.45 133.271 415.291 135.459 415.823 137.5L415.933 137.935C416.499 140.05 417.918 141.882 419.811 142.983C421.587 144.016 424.002 144.563 425.999 143.987C427.24 143.629 428.835 142.62 429.767 141.75L430.027 141.511C431.511 140.083 431.78 138.078 432.113 136.154C432.571 133.502 432.442 130.796 432.312 128.121C431.835 118.277 429.063 108.249 423.317 100.149C417.259 91.6098 408.847 85.4671 398.948 82.1475C397.138 81.5403 395.324 80.8382 393.43 80.5273C380.53 78.4108 366.455 81.2108 355.801 88.9973C352.991 91.0509 350.077 93.3794 347.773 96L347.535 96.2648C341.998 102.519 338.122 111.427 336.336 119.515C336.001 121.035 335.954 122.688 335.827 124.239C335.493 128.306 335.393 132.724 336.265 136.75C336.752 138.998 337.626 141.153 338.173 143.362C338.761 145.738 340.346 148.53 341.586 150.633C345.61 157.458 350.79 164.37 357.708 168.518C364.318 172.482 370.687 174.796 378.363 175.8C380.827 176.123 383.37 176.068 385.855 176.17L407.52 176.333C410.602 176.332 414.673 175.858 417.625 176.636C420.088 177.284 422.428 178.906 423.098 181.486C423.427 182.75 423.534 184.093 423.289 185.375L423.207 185.817C423.022 186.762 422.833 187.362 422.262 188.125L422.05 188.418C420.831 190.069 418.878 191.354 416.823 191.653C410.882 192.516 404.57 191.695 398.58 191.676L382.876 191.929C369.092 191.507 356.117 187.025 345.177 178.622C342.707 176.725 340.483 174.483 338.335 172.235C328.55 161.995 322.601 149.839 320.873 135.773C320.376 133.456 320.465 131.002 320.462 128.64C320.456 124.954 320.445 121.005 321.248 117.395ZM382.046 112.075C379.366 112.457 377.379 112.982 375.125 114.492L374.74 114.742C371.291 117.037 368.894 121.583 368.121 125.572C367.74 127.536 367.844 129.567 368.083 131.541C368.522 135.161 371.977 139.003 374.798 141.087C377.884 143.368 382.005 144.597 385.842 143.955L386.18 143.896L387.938 143.5C391.94 142.6 395.717 139.486 397.861 136.061C399.991 132.658 400.676 128.424 399.659 124.528C398.71 120.891 396.756 117.551 393.75 115.252L393.459 115.022C390.369 112.632 385.849 111.894 382.046 112.075ZM353.616 138.475C353.774 138.242 354.04 137.885 354.123 137.625C354.571 136.219 353.46 133.796 353.274 132.307C352.914 129.445 352.637 125.58 353.363 122.743C353.562 121.969 353.616 121.297 353.623 120.5C353.223 119.899 353.239 119.27 353.154 118.567C352.782 120.197 352.271 121.85 352.03 123.5C351.275 128.659 352.133 133.549 353.616 138.475ZM320.873 135.773L321.56 135.407C322.001 133.898 321.645 131.825 321.603 130.232L321.581 121.391C321.564 120.913 321.338 120.577 321.274 120.125C321.154 119.262 321.24 118.271 321.248 117.395C320.445 121.005 320.456 124.954 320.462 128.64C320.465 131.002 320.376 133.456 320.873 135.773ZM430.753 158.678C431.789 158.323 432.763 157.957 433.732 157.443L433.375 157.076L433.375 156.75L432.875 156.474C432.441 156.648 431.964 156.754 431.546 156.917L431.108 157.242L430.884 157.255C430.017 157.349 429.465 157.802 428.5 157.768L428.453 157.954L428.884 157.994C429.388 158.053 429.454 158.132 429.875 158.296L430.353 158.45L430.753 158.678Z"/>
	<path d="M430.753 158.678L430.353 158.45L429.875 158.296C429.454 158.132 429.388 158.053 428.884 157.994L428.453 157.954L428.5 157.768C429.465 157.802 430.017 157.349 430.884 157.255L431.108 157.242L431.546 156.917C431.964 156.754 432.441 156.648 432.875 156.474L433.375 156.75L433.375 157.076L433.732 157.443C432.763 157.957 431.789 158.323 430.753 158.678Z"/>
	<path d="M320.873 135.773C320.376 133.456 320.465 131.002 320.462 128.64C320.456 124.954 320.445 121.005 321.248 117.395C321.24 118.271 321.154 119.262 321.274 120.125C321.338 120.577 321.564 120.913 321.581 121.391L321.603 130.232C321.645 131.825 322.001 133.898 321.56 135.407L320.873 135.773Z"/>
	<path d="M353.616 138.475C352.133 133.549 351.275 128.659 352.03 123.5C352.271 121.85 352.782 120.197 353.154 118.567C353.239 119.27 353.223 119.899 353.623 120.5C353.616 121.297 353.562 121.969 353.363 122.743C352.637 125.58 352.914 129.445 353.274 132.307C353.46 133.796 354.571 136.219 354.123 137.625C354.04 137.885 353.774 138.242 353.616 138.475Z"/>
</svg>
