<?xml version="1.0" encoding="utf-8" ?>
<svg xmlns="http://www.w3.org/2000/svg" xmlns:xlink="http://www.w3.org/1999/xlink" width="512" height="512">
	<path d="M117.778 46.5865C121.966 46.1821 126.541 47.3776 130.375 48.9864C136.326 51.4842 140.996 55.5938 145.472 60.125C156.676 71.4656 164.397 85.5621 171.762 99.5665C175.215 106.134 178.783 112.756 181.581 119.637C186.431 119.283 191.458 119.561 196.332 119.576L225.195 119.693L317.642 119.748L410.921 119.589L440.159 119.563C445.695 119.56 451.318 119.349 456.843 119.714C462.357 120.079 466.815 121.402 471.747 123.804C477.233 126.476 482.765 132.018 484.92 137.805C486.181 141.194 486.817 144.6 486.981 148.221L487.155 180.524L487.19 231.71L487.173 302.635L487.206 326.939L487.175 340C487.138 344.576 487.13 349.215 485.733 353.625C483.437 360.876 477.663 366.74 471 370.157C467.499 371.952 463.809 373.098 459.875 373.42C454.048 373.896 448.083 373.7 442.238 373.703L414.833 373.71L377.53 373.707L358.073 373.657C356.471 373.594 354.652 373.535 353.125 373.009C350.629 372.15 348.49 370.281 347.324 367.902C346.054 365.31 345.857 362.35 346.848 359.625C347.753 357.137 349.572 354.975 352.013 353.884L352.375 353.727C356.07 352.061 359.945 352.479 363.875 352.671L384.808 352.762L423.361 352.761L445.944 352.761C449.811 352.766 454.068 353.116 457.897 352.619C460.075 352.336 461.962 351.464 463.566 349.968C464.718 348.894 465.509 347.741 465.668 346.146C465.843 344.39 465.686 342.497 465.669 340.731L465.682 331.719L465.72 295.791L465.749 202.242L465.77 172.33L465.695 159.871L463.536 161.34C459.607 163.665 456.005 166.893 452.43 169.73L436.054 182.638L365.053 238.37L334.93 261.935C330.093 265.696 325.393 269.809 320.341 273.268C316.782 275.705 312.515 278.275 308.295 279.335C303.431 280.557 298.246 281.116 293.251 280.313L292.875 280.249L292.219 280.142C283.548 278.489 276.595 273.057 269.769 267.85L257.654 258.376L199.484 212.556L179.592 196.925C176.993 194.879 174.125 193.097 171.676 190.873C169.636 189.02 168.141 187.165 167.078 184.596C166.879 184.117 167.058 184.325 166.5 184.059C165.124 185.119 163.419 185.853 161.902 186.709L154.139 191.151C149.869 193.498 145.159 195.912 142.123 199.851C137.926 205.299 136.506 213.677 137.46 220.363C138.07 224.641 139.127 228.626 140.958 232.54C142.057 234.887 143.525 237.056 144.847 239.283L150.484 248.979L165.932 275.754L181.482 302.625C184.664 308.184 187.685 314.02 191.369 319.262C193.228 321.907 196.019 324.545 198.625 326.456C205.761 331.69 214.37 334.71 223.139 332.14C226.411 331.181 229.545 329.021 232.454 327.289L241.438 322.17C243.628 320.899 245.735 319.47 248.014 318.356C251.772 316.518 256.221 315.181 260.352 314.571C272.605 312.762 283.441 316.221 293.306 323.477C304.82 331.945 312.347 343.87 320.036 355.625C331.016 372.408 341.762 389.121 344.791 409.359C345.908 416.823 344.609 425.146 340.049 431.271C337.156 435.157 332.965 437.476 328.907 439.963C323.567 443.235 318.086 446.313 312.31 448.756C300.83 453.613 288.517 456.404 276.242 458.242C239.95 463.676 200.999 451.021 171.946 429.325C156.399 417.715 142.401 403.433 130.483 388.157C128.385 385.468 126.556 382.519 124.587 379.732L117.093 369.006L109.182 355.625L92.2305 326.625L73.291 293.946L56.581 264.072C46.2295 243.485 38.7994 221.264 35.446 198.445C29.8379 160.283 37.3306 120.604 60.6198 89.375C67.6329 79.9708 76.1027 70.8786 85.3729 63.6554C90.1657 59.9209 95.1448 56.8182 100.386 53.7727C106.085 50.4612 111.15 47.5563 117.778 46.5865ZM119.237 67.625C113.613 70.6183 107.656 73.581 102.426 77.2073C98.0791 80.2208 94.1526 83.7379 90.3338 87.383C75.8138 101.243 65.6827 117.693 59.8297 136.883C56.7648 146.932 55.362 157.193 54.953 167.66C54.0285 191.324 58.8082 214.894 67.4967 236.875C70.3848 244.182 73.515 251.527 77.2584 258.449L89.7441 280.125L111.373 317.371L129.494 348.52L137.315 361.453C158.99 394.211 189.364 422.59 227.681 433.85C244.974 438.932 264.087 439.465 281.789 436.161C284.633 435.63 287.449 434.795 290.25 434.074C296.496 432.466 303.144 430.274 308.818 427.174L315.12 423.562L321.228 420.127C321.744 419.839 323.021 419.285 323.375 418.864C323.528 418.683 323.681 418.233 323.753 418C324.418 415.837 323.918 413.096 323.539 410.919C321.996 402.062 318.4 393.394 313.918 385.612L304.536 370.25C298.171 360.011 291.788 349.782 282.526 341.866C279.155 338.984 275.503 336.351 271.141 335.207L270.25 334.994C267.887 334.431 266.087 334.335 263.704 334.906L263.282 335.003C258.145 336.226 253.436 339.497 248.911 342.098C243.026 345.481 237.445 349.174 231.077 351.644C217.094 357.067 201.57 352.88 189.248 345.349C183.458 341.81 178.03 337.147 174.125 331.546C170.006 325.637 166.573 319.093 162.984 312.844L146.763 284.75L130.799 257.314C126.325 249.608 121.221 241.928 118.474 233.391C115.727 224.854 115.571 215.608 117.063 206.808C118.855 196.234 124.429 185.384 133.287 179.122C136.422 176.906 139.821 175.092 143.147 173.189L151.231 168.376C155.577 165.839 160.319 163.577 163.538 159.569C165.112 157.609 166.03 155.204 166.509 152.75C167.084 149.806 166.827 146.494 166.432 143.539C164.769 131.087 158.199 118.925 152.375 107.938C148.181 100.026 143.67 92.0528 138.473 84.7518C134.456 79.1088 130.051 73.1554 124.201 69.3294L123.911 69.136C122.694 68.3393 121.308 67.7392 119.882 67.4501L119.237 67.625ZM187.622 141.125C187.39 143.597 187.932 146.111 187.876 148.593C187.697 156.409 184.917 165.556 180.196 171.85L180.395 171.931C185.367 174.054 189.82 178.386 194.043 181.712L210.961 195.052L270.464 241.788L282.66 251.374C285.475 253.587 288.236 256.246 291.492 257.794C295.442 259.672 299.493 260.26 303.684 258.537C308.334 256.625 312.322 252.68 316.266 249.631L337.002 233.375L384.125 196.49L454.696 141.064L435.038 141.014L394.004 140.989L278.355 140.988L216.252 140.991L197.242 140.994C194.129 140.995 190.704 140.753 187.622 141.125Z"/>
</svg>
